# xmcd
#
# Track frame offsets:
#	150
#	20122
#	36670
#	53828
#	73427
#	90253
#	104631
#	122066
#	142809
#	159707
#
# Disc length: 2420 seconds
#
# Revision: 0
# Processed by: cddbd v1.5.2PL0 Copyright (c) Steve Scherf et al.
# Submitted via: EZCDAudioConverter 2.8.1.1
#
DISCID=9209720a
DTITLE=Ninni Poijärvi and Mika Kuokkanen - Powderburn [flac]
DYEAR=2008
DGENRE=Country, Blues
TTITLE0=Waterbound
TTITLE1=Can I Go Home With You
TTITLE2=I Got The Same Old Blues
TTITLE3=Powderburn
TTITLE4=Keep Your Distance
TTITLE5=Reason To Believe
TTITLE6=Riding Home
TTITLE7=Travellin In Style
TTITLE8=You Love The Thunder
TTITLE9=It`S All Over Now, Baby Blue
EXTD=
EXTT0=
EXTT1=
EXTT2=
EXTT3=
EXTT4=
EXTT5=
EXTT6=
EXTT7=
EXTT8=
EXTT9=
PLAYORDER=
